<svg id="calendar_-_Copy" data-name="calendar - Copy" xmlns="http://www.w3.org/2000/svg" width="77.591" height="77.591" viewBox="0 0 77.591 77.591">
  <g id="Group_2" data-name="Group 2">
    <g id="Group_1" data-name="Group 1">
      <path id="Path_7" data-name="Path 7" d="M68.5,6.062H64.861V0H58.8V6.062H18.792V0H12.73V6.062H9.093A9.1,9.1,0,0,0,0,15.155V68.5a9.1,9.1,0,0,0,9.093,9.093H68.5A9.1,9.1,0,0,0,77.591,68.5V15.155A9.1,9.1,0,0,0,68.5,6.062ZM71.529,68.5A3.034,3.034,0,0,1,68.5,71.529H9.093A3.034,3.034,0,0,1,6.062,68.5V28.491H71.529Zm0-46.07H6.062V15.155a3.034,3.034,0,0,1,3.031-3.031H12.73v6.062h6.062V12.124H58.8v6.062h6.062V12.124H68.5a3.034,3.034,0,0,1,3.031,3.031Z" fill="#fff"/>
    </g>
  </g>
  <g id="Group_4" data-name="Group 4" transform="translate(11.722 34.584)">
    <g id="Group_3" data-name="Group 3" transform="translate(0 0)">
      <rect id="Rectangle_9" data-name="Rectangle 9" width="6.016" height="6.618" fill="#fff"/>
    </g>
  </g>
  <g id="Group_6" data-name="Group 6" transform="translate(23.755 34.584)">
    <g id="Group_5" data-name="Group 5" transform="translate(0 0)">
      <rect id="Rectangle_10" data-name="Rectangle 10" width="6.016" height="6.618" fill="#fff"/>
    </g>
  </g>
  <g id="Group_8" data-name="Group 8" transform="translate(35.787 34.584)">
    <g id="Group_7" data-name="Group 7" transform="translate(0 0)">
      <rect id="Rectangle_11" data-name="Rectangle 11" width="6.016" height="6.618" fill="#fff"/>
    </g>
  </g>
  <g id="Group_10" data-name="Group 10" transform="translate(47.82 34.584)">
    <g id="Group_9" data-name="Group 9" transform="translate(0 0)">
      <rect id="Rectangle_12" data-name="Rectangle 12" width="6.016" height="6.618" fill="#fff"/>
    </g>
  </g>
  <g id="Group_12" data-name="Group 12" transform="translate(59.853 34.584)">
    <g id="Group_11" data-name="Group 11" transform="translate(0 0)">
      <rect id="Rectangle_13" data-name="Rectangle 13" width="6.016" height="6.618" fill="#fff"/>
    </g>
  </g>
  <g id="Group_14" data-name="Group 14" transform="translate(11.722 47.218)">
    <g id="Group_13" data-name="Group 13" transform="translate(0 0)">
      <rect id="Rectangle_14" data-name="Rectangle 14" width="6.016" height="6.016" fill="#fff"/>
    </g>
  </g>
  <g id="Group_16" data-name="Group 16" transform="translate(23.755 47.218)">
    <g id="Group_15" data-name="Group 15" transform="translate(0 0)">
      <rect id="Rectangle_15" data-name="Rectangle 15" width="6.016" height="6.016" fill="#fff"/>
    </g>
  </g>
  <g id="Group_18" data-name="Group 18" transform="translate(35.787 47.218)">
    <g id="Group_17" data-name="Group 17" transform="translate(0 0)">
      <rect id="Rectangle_16" data-name="Rectangle 16" width="6.016" height="6.016" fill="#fff"/>
    </g>
  </g>
  <g id="Group_20" data-name="Group 20" transform="translate(47.82 47.218)">
    <g id="Group_19" data-name="Group 19" transform="translate(0 0)">
      <rect id="Rectangle_17" data-name="Rectangle 17" width="6.016" height="6.016" fill="#fff"/>
    </g>
  </g>
  <g id="Group_22" data-name="Group 22" transform="translate(11.722 59.251)">
    <g id="Group_21" data-name="Group 21" transform="translate(0 0)">
      <rect id="Rectangle_18" data-name="Rectangle 18" width="6.016" height="6.016" fill="#fff"/>
    </g>
  </g>
  <g id="Group_24" data-name="Group 24" transform="translate(23.755 59.251)">
    <g id="Group_23" data-name="Group 23" transform="translate(0 0)">
      <rect id="Rectangle_19" data-name="Rectangle 19" width="6.016" height="6.016" fill="#fff"/>
    </g>
  </g>
  <g id="Group_26" data-name="Group 26" transform="translate(35.787 59.251)">
    <g id="Group_25" data-name="Group 25" transform="translate(0 0)">
      <rect id="Rectangle_20" data-name="Rectangle 20" width="6.016" height="6.016" fill="#fff"/>
    </g>
  </g>
  <g id="Group_28" data-name="Group 28" transform="translate(47.82 59.251)">
    <g id="Group_27" data-name="Group 27" transform="translate(0 0)">
      <rect id="Rectangle_21" data-name="Rectangle 21" width="6.016" height="6.016" fill="#fff"/>
    </g>
  </g>
  <g id="Group_30" data-name="Group 30" transform="translate(59.853 47.218)">
    <g id="Group_29" data-name="Group 29" transform="translate(0 0)">
      <rect id="Rectangle_22" data-name="Rectangle 22" width="6.016" height="6.016" fill="#fff"/>
    </g>
  </g>
</svg>