<svg id="download-circular-button" xmlns="http://www.w3.org/2000/svg" width="135.851" height="135.851" viewBox="0 0 135.851 135.851">
  <g id="_x37__43_">
    <g id="Group_43" data-name="Group 43">
      <path id="Path_41" data-name="Path 41" d="M89.666,65.65l-17.495,17.5V38.208a4.245,4.245,0,1,0-8.491,0V83.149L46.185,65.654a4.245,4.245,0,0,0-6,6L64.2,95.673a4.162,4.162,0,0,0,3.732,1.1,4.177,4.177,0,0,0,3.732-1.1L95.677,71.657a4.249,4.249,0,0,0-6.012-6.007ZM67.925,0a67.925,67.925,0,1,0,67.925,67.925A67.926,67.926,0,0,0,67.925,0Zm0,127.36A59.435,59.435,0,1,1,127.36,67.925,59.434,59.434,0,0,1,67.925,127.36Z" fill="#fff"/>
    </g>
  </g>
</svg>