<svg xmlns="http://www.w3.org/2000/svg" width="55.334" height="55.334" viewBox="0 0 55.334 55.334">
  <path id="geophysics" d="M27.667,0A27.667,27.667,0,1,0,55.334,27.667,27.667,27.667,0,0,0,27.667,0ZM50.993,16.6c-.241.994-.488,1.981-.747,2.945A23.818,23.818,0,0,0,33.217,4.335l.947-1.66A25.931,25.931,0,0,1,50.993,16.6ZM24.9,27.667c0-1.986.085-3.966.238-5.927a6.456,6.456,0,1,1,0,11.854C24.985,31.633,24.9,29.654,24.9,27.667Zm2.767,8.3a8.3,8.3,0,1,0-2.349-16.245c.241-2.3.6-4.548,1.041-6.743.421-.04.851-.067,1.308-.067a14.756,14.756,0,0,1,0,29.511c-.461,0-.886-.028-1.308-.067-.445-2.195-.8-4.447-1.041-6.743a8.284,8.284,0,0,0,2.349.355Zm0,8.3a16.6,16.6,0,1,0,0-33.2c-.31,0-.6.015-.9.03.331-1.42.7-2.817,1.113-4.168a1.828,1.828,0,0,1,1.723-1.3,1.342,1.342,0,0,1,.16.006,22.134,22.134,0,0,1,0,44.072,1.83,1.83,0,0,1-1.886-1.3c-.416-1.351-.782-2.747-1.113-4.168C27.062,44.252,27.357,44.267,27.667,44.267ZM10.614,8.3h2.843a2.213,2.213,0,0,1,1.677,3.661l-5.486,6.4a5.678,5.678,0,0,0-1.353,3.668,3.8,3.8,0,0,1-3.787,3.79H1.917A25.772,25.772,0,0,1,10.614,8.3ZM3.763,37.42l.335-.744a4.3,4.3,0,0,1,3.917-2.553,4.879,4.879,0,0,1,3,1,27.381,27.381,0,0,0,5.958,3.418,3.862,3.862,0,0,1,2.413,3.54v2.075a3.771,3.771,0,0,1-1.114,2.686,5.605,5.605,0,0,0-1.653,3.991V51A25.973,25.973,0,0,1,3.763,37.42Zm23.9,16.07a25.679,25.679,0,0,1-9.2-1.7v-.955a3.773,3.773,0,0,1,1.113-2.686,5.6,5.6,0,0,0,1.654-3.991V42.082a5.7,5.7,0,0,0-3.545-5.241,25.465,25.465,0,0,1-5.55-3.179,6.718,6.718,0,0,0-4.121-1.383,6.136,6.136,0,0,0-5.1,2.745,25.747,25.747,0,0,1-1.073-7.357H4.508a5.644,5.644,0,0,0,5.631-5.635,3.836,3.836,0,0,1,.912-2.472l5.484-6.4a4.058,4.058,0,0,0-3.077-6.706h-.492A25.691,25.691,0,0,1,32.278,2.264l-.976,1.7c-.45-.068-.9-.128-1.362-.172a3.67,3.67,0,0,0-3.823,2.591,73.267,73.267,0,0,0-3.062,21.281,73.256,73.256,0,0,0,3.062,21.281A3.681,3.681,0,0,0,29.6,51.553c.111,0,.221,0,.333-.016a23.868,23.868,0,0,0,21.708-23.87,24.4,24.4,0,0,0-.456-4.7c.336-1.125.658-2.284.971-3.466A25.809,25.809,0,0,1,27.667,53.49Z" fill="#1975c0"/>
</svg>