<svg xmlns="http://www.w3.org/2000/svg" width="82.137" height="77.591" viewBox="0 0 82.137 77.591">
  <path id="teacher" d="M107.578,110.388h5.25v1.622h-5.25Zm0-3.255h7.578v1.622h-7.578Zm0-3.245h7.578v1.622h-7.578Zm-3.285-5.462v21.161H118.4V98.427Zm-16.2,0v21.161H102.2V98.427Zm-3.245-3.194h36.841v27.6H107.578a1.633,1.633,0,0,1-1.632,1.622h-5.411a1.622,1.622,0,0,1-1.582-1.622H84.845Zm1.008-12.092a46.006,46.006,0,0,1,13.3,2.015,45.139,45.139,0,0,1,14.914,7.054H81.822v23.177H55.914a8.666,8.666,0,0,0,4.494-9.633,8.545,8.545,0,0,0-6.8-6.228v-.262a8.413,8.413,0,0,1,3.225-6.449,51.852,51.852,0,0,1,15.72-7.659,50.679,50.679,0,0,1,13.3-2.015ZM40.24,73.281a1.009,1.009,0,0,1,1.275.64l9.13,27.55a6.551,6.551,0,1,1,2.6,12.837c-3.779.937-5.865,1.462-7.457-4.887-1.381-5.563.04-6.661,2.942-7.477L39.6,74.555a1.009,1.009,0,0,1,.64-1.275ZM85.852,46.864A16.123,16.123,0,1,1,69.729,62.987,16.123,16.123,0,0,1,85.852,46.864Z" transform="translate(-39.548 -46.864)" fill="#1975c0" fill-rule="evenodd"/>
</svg>