<svg xmlns="http://www.w3.org/2000/svg" width="77.487" height="67.461" viewBox="0 0 77.487 67.461">
  <g id="Ticket" transform="translate(-10.42 -41.167)">
    <g id="Group" transform="translate(10.42 41.167)">
      <path id="Path" d="M391.845,183.505a1.812,1.812,0,0,0,1.685-1.685V171.713a4.963,4.963,0,0,0-5.053-5.053H375v47.166h13.475a4.963,4.963,0,0,0,5.053-5.053V198.666a1.688,1.688,0,0,0-1.685-1.685,6.738,6.738,0,1,1,0-13.476Z" transform="translate(-316.043 -146.366)" fill="#1975c0"/>
      <path id="Path-2" data-name="Path" d="M178.479,56.409a1.752,1.752,0,0,0,1.011-2.19l-3.37-9.6a5.094,5.094,0,0,0-6.4-3.2L121.88,57.924h53.9A8.543,8.543,0,0,1,178.479,56.409Z" transform="translate(-103.856 -41.167)" fill="#1975c0"/>
      <path id="Shape" d="M10.42,171.723V181.83a1.592,1.592,0,0,0,1.685,1.685,6.738,6.738,0,1,1,0,13.476,1.591,1.591,0,0,0-1.685,1.684v10.107a4.963,4.963,0,0,0,5.053,5.053H66.008V166.67H15.473a4.967,4.967,0,0,0-5.053,5.053Zm20.214,8.422H40.741a1.685,1.685,0,0,1,0,3.37H30.634a1.685,1.685,0,0,1,0-3.37Zm0,8.422h21.9a1.685,1.685,0,1,1,0,3.37h-21.9a1.685,1.685,0,1,1,0-3.37Zm0,8.422h21.9a1.685,1.685,0,0,1,0,3.37h-21.9a1.684,1.684,0,1,1,0-3.368Z" transform="translate(-10.42 -146.375)" fill="#1975c0"/>
    </g>
  </g>
</svg>